<svg width="128" height="128" viewBox="0 0 128 128" fill="none" xmlns="http://www.w3.org/2000/svg">
  <defs>
    <linearGradient id="bgGradient" x1="0%" y1="0%" x2="100%" y2="100%">
      <stop offset="0%" style="stop-color:hsl(252, 87%, 58%)" />
      <stop offset="100%" style="stop-color:hsl(280, 72%, 55%)" />
    </linearGradient>
  </defs>

  <!-- Rounded square background -->
  <rect x="8" y="8" width="112" height="112" rx="24" fill="url(#bgGradient)"/>

  <!-- Sparkles icon (from Lucide) - scaled and centered -->
  <g transform="translate(32, 32) scale(2.67)" stroke="white" stroke-width="2" stroke-linecap="round" stroke-linejoin="round" fill="none">
    <path d="m12 3-1.912 5.813a2 2 0 0 1-1.275 1.275L3 12l5.813 1.912a2 2 0 0 1 1.275 1.275L12 21l1.912-5.813a2 2 0 0 1 1.275-1.275L21 12l-5.813-1.912a2 2 0 0 1-1.275-1.275L12 3Z"/>
    <path d="M5 3v4"/>
    <path d="M19 17v4"/>
    <path d="M3 5h4"/>
    <path d="M17 19h4"/>
  </g>
</svg>
